# xmcd
#
# Track frame offsets:
#	150
#	15182
#	34327
#	50382
#	61565
#	81092
#	96105
#	108530
#	121672
#	139172
#	154402
#	166567
#	178220
#	192800
#	207567
#	221037
#	234445
#	248457
#	263870
#	279770
#
# Disc length: 3919 seconds
#
# Revision: 1
# Processed by: cddbd v1.4b41PL2 Copyright (c) Steve Scherf et al.
# Submitted via: audiograbber 1.80
#
DISCID=060f4d14
DTITLE=Various Artist - Country Dance Party
DYEAR=1900
DGENRE=
TTITLE0=Brooks and Dunn - Boot Scootin' Boogie
TTITLE1=Shania Twain - Who's Bed Have Your Boots Been Under
TTITLE2=Shania Twain - Honey I'm Home
TTITLE3=Alan Jackson - Chattahoochie
TTITLE4=Various Artist - Dance The Night Away
TTITLE5=Various Artist - This Kiss
TTITLE6=Various Artist - Wink
TTITLE7=Alan Jackson - Don't Rock The Jukebox
TTITLE8=Garth Brooks - Friends In Low Places
TTITLE9=Alabama - 40 Hour Week
TTITLE10=David Allen Coe - Take This Job And Shove It
TTITLE11=Willie Nelson - Mama Don't Let Your Babies Grow Up to Be Cowboys
TTITLE12=Jimmy Buffet - Margaritaville
TTITLE13=The Judds - Mama He's Crazy
TTITLE14=Various Artist - Swingin'
TTITLE15=Kentucky Headhunters - Dumas Walker
TTITLE16=Bellamy Brothers - If I Said You Had A Beautiful Body, Would You Hold 
TTITLE16=It Against Me
TTITLE17=Billy Ray Cyrus - Achy Breaky Heart
TTITLE18=Lynn Anderson - Devil Went Down To Georgia
TTITLE19=Rednex - Cotton Eye Joe
EXTD=
EXTT0=
EXTT1=
EXTT2=
EXTT3=
EXTT4=
EXTT5=
EXTT6=
EXTT7=
EXTT8=
EXTT9=
EXTT10=
EXTT11=
EXTT12=
EXTT13=
EXTT14=
EXTT15=
EXTT16=
EXTT17=
EXTT18=
EXTT19=
PLAYORDER=
